<?xml version="1.0" encoding="UTF-8"?><svg id="uuid-7b7046ac-4320-4058-bfcd-7c7cb3f60760" xmlns="http://www.w3.org/2000/svg" viewBox="0 0 2059.26 524.56"><path d="M202.48,303.14c37.2,3.8,86.8,4,124,0l-61,156c-.7.6-.5,2.9-1.5,3-2.1.2-2.5-2.3-3.5-3l-60-156c.6,0,1.3-.1,2,0Z" style="fill:#b7404c;"/><path d="M375.48,195.14c8.6,4.4,15.4,6.2,23,12,.3.2,2.7-.2,3.4,1l42.6,58-83.5-32c4.9,11.2,44.3,45.6,46.5,53,.1.3-.1.7,0,1-26.5,4.4-54.3,12.2-81,15-37.2,4-86.8,3.8-124,0l60-55h3c7.1,6.1,57.5,55.2,61.4,54,3.6-1.1,26.6-62,31.7-69.3l39.9-25.6c-10.7-.4-20.7-3.3-31-6-1.6-6.4,7.5.1,8-6.1Z" style="fill:#c5505c;"/><path d="M199.48,303.14h1l60,156c-4.8-3.6-12.9-13.1-17-18-7.3-8.9-13.6-19.4-21-28.5-33.8-41.3-69.3-81.3-102-123.5,26.3,2.3,52.9,11.1,79,14Z" style="fill:#a6343e;"/><path d="M407.48,288.14c-39.8,50.5-82.3,98.9-123.1,148.5-1.3,1.6.2,2.4.1,2.5-5.7,6.9-12.1,14.4-19,20l61-156c26.7-2.9,54.4-10.6,81-15Z" style="fill:#a6343e;"/><path d="M155.48,193.14c5.1,1.7,5.6,2.4,5,8-10,2.7-23.7,3.3-32,6,.7,3.4,34.8,20.6,39,25.5l32,70.5c-26-2.9-52.7-11.7-79-14,.1-.6-.1-1.4,0-2,1.7-7.5,40.7-42.2,45.5-53l-82.5,32v-1c2.4-5,38.6-55,41.6-57,1.7-1.1,2.3-.6,3.4-1-.5-2.5,23.1-12.1,27-14Z" style="fill:#c5505c;"/><path d="M83.48,266.14c10.4,8.6,24,17.3,37,21-.1.6.1,1.4,0,2,32.7,42.2,68.1,82.2,102,123.5,7.4,9,13.7,19.6,21,28.5l-162-173c-.5-2.4,1.7-2.5,2-3v1h0Z" style="fill:#c44d5a;"/><path d="M443.48,268.14c-5.6,11.7-44.2,49.7-55.5,62-33.9,36.8-68.9,72.8-103.5,109,.1-.1-1.5-.9-.1-2.5,40.8-49.7,83.3-98,123.1-148.5-.1-.3.1-.7,0-1l36-19Z" style="fill:#c44d5a;"/><path d="M444.48,266.14v1c-.1.3-.8.6-1,1l-36,19c-2.2-7.4-41.7-41.8-46.5-53l83.5,32Z" style="fill:#a6343e;"/><path d="M375.48,195.14c-.4,6.3-9.5-.3-8,6-17-4.5-33-10.6-50-15,1-1.9,4.3-8.4,6-9,11.7-3.9,40.9,12.4,52,18Z" style="fill:#c44d5a;"/><path d="M203.48,177.14c.3-.1.7,0,1,0,1.7,3.3,3.4,6.7,5,10-16.9,2.7-32.5,9.6-49,14,.6-5.6.1-6.3-5-8,21.1-10.3,24.4-12.2,48-16Z" style="fill:#c44d5a;"/><path d="M323.48,176.14v1c-1.7.6-5,7.1-6,9-.3.7-.7,1.3-1,2-.3-.1-.7.1-1,0-8.3-1.7-18.6-3.6-27-4,.3-3.7,1.1-7.4,2-11l33,3Z" style="fill:#d6616e;"/><path d="M444.48,267.14v-1c1.9.7,0,.7,0,1Z" style="fill:#c44d5a;"/><path d="M245.48,172.14h-9c.1.3-.1.7,0,1-10.8.2-21.4,2.4-32,4,1.7,3.3,3.4,6.7,5,10,.2.3.8.6,1,1,.3-.1.7.1,1,0,8.9-1.7,18-3.2,27-4h1c2.5-.2,5-.9,7-1l-1-11Z" style="fill:#d6616e;"/><path d="M290.48,172.14h-45l1,11h1c10.9-.6,22.1.4,33,0-.1.3.1.7,0,1h8c.3-3.7,1.1-7.4,2-11,.1-.3-.1-.7,0-1Z" style="fill:#c44d5a;"/><path d="M209.48,187.14c.2.3.8.6,1,1-5.7,1.1-11.9,2.1-17,5-7.6.4-25.9,10.3-29,17.5-8.5,19.2,22,27.1,35,30.5,15.3,4,30.2,6.1,46,7,2.6.1,5.3-.1,8,0,1.7.1,3.3,0,5,0h4l-60,55c-.7-.1-1.3.1-2,0h-1l-32-70.5c-4.2-4.9-38.3-22.1-39-25.5,8.3-2.7,22-3.3,32-6,16.5-4.4,32-11.3,49-14Z" style="fill:#d5616e;"/><path d="M367.48,201.14c10.3,2.7,20.3,5.6,31,6l-39.9,25.6c-5.1,7.4-28.1,68.2-31.7,69.3-3.9,1.2-54.4-47.9-61.4-54h7c3-.1,6,.2,9,0,15.8-.9,30.7-3,46-7,49.9-13.2,47.9-36.1,0-50-3.8-1.1-7.1-2.2-11-3,.3-.7.7-1.3,1-2,16.9,4.5,33,10.6,50,15.1Z" style="fill:#d6616e;"/><path d="M120.48,287.14c-13-3.7-26.6-12.4-37-21l82.5-32c-4.8,10.8-43.9,45.4-45.5,53Z" style="fill:#a6343e;"/><path d="M316.48,188.14c-.3-.1-.7.1-1,0-8.3-1.7-18.6-3.6-27-4h-1l-15,64c3-.1,6,.2,9,0,15.8-.9,30.7-3,46-7v-50c-3.8-1.1-7.1-2.2-11-3Z" style="fill:#381d25;"/><path d="M247.48,183.14h-1c-2,.1-4.5.8-7,1h-1c-9,.8-18.1,2.3-27,4l34,60c2.6.1,5.3-.1,8,0,1.7.1,3.3,0,5,0l-11-65Z" style="fill:#381d25;"/><path d="M280.48,184.14c.1-.3-.1-.7,0-1-10.9.4-22.1-.6-33,0l11,65h14l15-64h-7Z" style="fill:#44202a;"/><path d="M210.48,188.14c.3-.1.7.1,1,0l34,60c-15.8-.9-30.7-3-46-7-.7-6.2,1.3-46-1-48-.2-.2-4.3,0-5,0,5.1-3,11.3-3.9,17-5Z" style="fill:#381d25;"/><path d="M193.48,193.14c.7,0,4.8-.2,5,0,2.3,2,.3,41.8,1,48-13-3.4-43.6-11.4-35-30.5,3.1-7.2,21.4-17.1,29-17.5Z" style="fill:#44202a;"/><path d="M327.48,241.14v-50c47.9,13.9,49.9,36.8,0,50Z" style="fill:#44202a;"/><path d="M281.88,197.44c10.2-38.2,19.4-76.5,29-114.8h-96l29,114.8h1l1,7.3h1l11,43.4h10c3.8-14.3,8.1-28.5,12-42.7.1-.2-.1-.5,0-.7.7-2.4,1.3-4.9,2-7.3Z" style="fill:#f2a764; isolation:isolate; opacity:.74;"/><path d="M328.88,82.64c-11.4,38.5-24.9,76.7-39,114.8-.1.2.1.5,0,.7-.9,2.4-1.7,4.9-2,7.3h-1l-15,42.7c3-.1,6,.1,9,0l34-40h1c.3-.4.7-.9,1-1.3,1-1.3,4.3-5.6,6-6v-.7l106-117.5h-100Z" style="fill:#b274e2; isolation:isolate; opacity:.74;"/><path d="M238.88,205.44h-1c.2-2.5-1.1-4.9-2-7.3-.1-.2.1-.5,0-.7-14.6-38-27.3-76.3-39-114.8h-100l106,118.1h1c1.7,2.2,3.4,4.4,5,6.7.2.2.8.4,1,.7h1l34,40c2.6.1,5.3-.1,8,0l-14-42.7Z" style="fill:#58bab7; isolation:isolate; opacity:.74;"/><g style="isolation:isolate;"><path d="M563.12,244.31c18.62-18.24,41.04-27.36,67.26-27.36s48.64,9.12,67.26,27.36,27.74,40.66,27.74,66.88-9.12,48.64-27.74,67.26c-18.62,18.24-41.04,27.36-67.26,27.36s-48.64-9.12-67.26-27.36c-18.24-18.62-27.36-41.04-27.36-67.26s9.12-49.02,27.36-66.88ZM585.54,265.21c-12.54,12.92-18.62,28.12-18.62,45.98s6.08,33.06,18.24,46.36c12.54,12.92,27.36,19.38,45.22,19.38s33.06-6.46,45.22-19.38c12.54-13.3,18.62-28.5,18.62-46.36s-6.08-33.06-18.62-45.98c-12.16-12.92-27.36-19.38-45.22-19.38s-32.3,6.46-44.84,19.38Z" style="fill:#c5505c;"/><path d="M920.32,268.25v133.76h-33.82v-113.24c0-28.5-9.88-42.56-34.58-42.56-15.2,0-33.44,10.26-42.18,18.24l-6.46,6.46v131.1h-34.2v-181.64h31.92l1.52,19.38c1.9-1.9,4.18-3.8,7.6-6.46,3.42-2.66,10.26-5.7,19.76-9.88,9.5-4.18,19-6.46,27.74-6.46,28.88,0,44.46,15.58,48.64,21.66l1.9,2.66c1.9-1.9,4.94-3.8,8.74-6.46,4.18-2.66,11.78-6.46,22.8-11.02,11.02-4.56,22.04-6.84,32.68-6.84,42.56,0,64.6,29.26,64.6,70.68v114.38h-33.82v-109.44c0-30.78-12.16-46.36-36.48-46.36-15.2,0-32.68,9.12-40.66,16.72l-5.7,5.32Z" style="fill:#c5505c;"/><path d="M1255.09,402.01h-33.82v-108.68c0-30.02-16.72-47.12-41.42-47.12-20.14,0-41.04,10.64-49.02,19.38l-6.46,6.46v129.96h-34.2v-181.64h31.92l1.52,19.76c1.9-1.9,4.18-3.8,7.6-6.46s10.26-6.08,20.9-10.26c11.02-4.18,22.04-6.46,33.44-6.46,21.66,0,38.38,6.84,50.92,20.9,12.54,13.68,18.62,30.78,18.62,50.92v113.24Z" style="fill:#c5505c;"/><path d="M1310.18,185.03v-36.48h36.48v36.48h-36.48ZM1310.94,220.37h34.96v181.64h-34.96v-181.64Z" style="fill:#c5505c;"/><path d="M1544.27,373.13v28.88h-155.8l108.3-152.76h-95.38v-28.88h151.24l-107.54,152.76h99.18Z" style="fill:#c5505c;"/><path d="M1594.42,185.03v-36.48h36.48v36.48h-36.48ZM1595.18,220.37h34.96v181.64h-34.96v-181.64Z" style="fill:#c5505c;"/><path d="M1689.8,478.01V220.37h31.54l1.52,22.8c1.14-1.52,1.9-3.04,9.12-9.12,9.88-7.98,25.46-17.48,49.4-17.48s44.08,9.12,60.42,27.36c16.34,18.24,24.7,40.66,24.7,67.26s-8.36,49.02-24.7,67.26c-16.34,18.24-36.48,27.36-60.42,27.36-31.16,0-50.54-15.96-55.48-22.8l-2.28-2.66v97.66h-33.82ZM1818.24,357.55c11.02-12.54,16.34-28.12,16.34-46.36s-5.32-33.44-16.34-45.98c-10.64-12.92-24.7-19.38-42.18-19.38-21.28,0-40.66,12.16-47.12,22.42l-5.32,7.22v71.44c1.14,1.52,1.9,3.42,8.36,10.64,8.36,8.36,23.56,19,43.7,19,17.48,0,31.54-6.46,42.56-19Z" style="fill:#c5505c;"/></g></svg>